<svg width="56" height="56" viewBox="0 0 56 56" fill="none" xmlns="http://www.w3.org/2000/svg">
<path d="M41.7161 12.4445L39.217 40.4412L27.9832 43.5556L16.7804 40.4456L14.2839 12.4445H41.7161Z" fill="#264DE4"/>
<path d="M37.0774 38.6585L39.2131 14.734H28V41.1751L37.0774 38.6585Z" fill="#2965F1"/>
<path d="M20.0071 25.1191L20.3149 28.5533H28V25.1191H20.0071Z" fill="#EBEBEB"/>
<path d="M28 18.1682H27.9881H19.3886L19.7008 21.6025H28V18.1682Z" fill="#EBEBEB"/>
<path d="M28 37.6112V34.0382L27.985 34.0422L24.1602 33.0095L23.9157 30.2705H22.0572H20.4683L20.9495 35.6627L27.9842 37.6156L28 37.6112Z" fill="#EBEBEB"/>
<path d="M32.217 28.5534L31.8184 33.0073L27.9881 34.0411V37.614L35.0285 35.6627L35.0801 35.0825L35.8871 26.0414L35.9709 25.1192L36.5909 18.1682H27.9881V21.6025H32.8273L32.5148 25.1192H27.9881V28.5534H32.217Z" fill="white"/>
</svg>
